<?xml version="1.0" encoding="utf-8"?>
<!-- Generator: Adobe Illustrator 16.0.0, SVG Export Plug-In . SVG Version: 6.00 Build 0)  -->
<!DOCTYPE svg PUBLIC "-//W3C//DTD SVG 1.1//EN" "http://www.w3.org/Graphics/SVG/1.1/DTD/svg11.dtd">
<svg version="1.1" id="Layer_1" xmlns="http://www.w3.org/2000/svg" xmlns:xlink="http://www.w3.org/1999/xlink" x="0px" y="0px"
	 width="146px" height="103px" viewBox="0 0 146 103" enable-background="new 0 0 146 103" xml:space="preserve">
<path d="M140.566,24.855c-1.719-0.653-3.641,0.211-4.293,1.929l-1.379,3.629l-43.657,0.001l3.656-20.98
	c0.653-1.718-0.211-3.64-1.929-4.292c-1.719-0.653-3.641,0.211-4.293,1.929l-4.068,23.344H76.38l0,0h-4.026l0,0H63.8L59.731,7.071
	c-0.653-1.718-2.574-2.582-4.293-1.929c-1.718,0.652-2.582,2.574-1.929,4.292l3.657,20.981l-45.53,0.001l-0.957-2.128
	c-0.753-1.676-2.723-2.425-4.4-1.671c-1.676,0.753-2.424,2.723-1.67,4.399l21.137,47.026v0.226h0.101l9.166,20.393
	c0.576,1.283,1.866,2.02,3.191,1.957c0.043,0.002,0.087,0.007,0.131,0.007h74.163c0.095,0,0.188-0.006,0.281-0.015
	c1.44,0.119,2.846-0.713,3.383-2.133l26.334-69.331C143.148,27.429,142.285,25.507,140.566,24.855z M112.887,88.357V87.9h0.174
	L112.887,88.357z M108.86,93.97H94.633V87.9h14.228L108.86,93.97L108.86,93.97z M94.633,83.875V78.27h14.228v5.605H94.633z
	 M40.201,93.97l-0.329-0.729v-5.338H54.1v6.068L40.201,93.97L40.201,93.97z M39.873,83.875V78.27H54.1v5.605H39.873z M58.326,37.071
	l1.441,8.272h-1.641v-8.272H58.326z M90.607,37.071v8.272h-1.972l1.441-8.272H90.607z M58.126,59.003h4.022l0.437,2.505
	c0.653,1.719,2.574,2.582,4.293,1.93c1.717-0.652,2.581-2.574,1.929-4.291l-0.024-0.144h3.571v5.606H58.126V59.003z M54.1,64.609
	H39.873v-5.606H54.1V64.609z M72.354,68.636v5.606H58.126v-5.606H72.354z M76.38,68.636h14.228v5.606H76.38V68.636z M76.38,64.609
	v-5.606h3.241l-0.025,0.144c-0.651,1.717,0.212,3.639,1.93,4.291c1.719,0.652,3.64-0.211,4.293-1.93l0.437-2.505h4.353v5.606H76.38z
	 M94.633,59.003h14.228v5.606H94.633V59.003z M94.633,54.976V49.37h14.228v5.606H94.633z M94.633,45.343V37.07h14.228v8.273H94.633z
	 M90.607,49.37v5.606h-3.651l0.978-5.606H90.607z M80.322,54.976H76.38V49.37h4.92L80.322,54.976z M72.354,54.976H68.08
	l-0.977-5.606h5.25L72.354,54.976L72.354,54.976z M61.447,54.976h-3.321V49.37h2.343L61.447,54.976z M54.1,45.343H39.873v-8.271
	H54.1V45.343z M54.1,49.37v5.606H39.873V49.37H54.1z M35.846,54.976H22.674l-2.52-5.606h15.691L35.846,54.976L35.846,54.976z
	 M35.846,59.003v5.606h-8.842l-2.52-5.606H35.846z M35.846,68.636v5.606h-4.513l-2.519-5.606H35.846z M39.873,68.636H54.1v5.606
	H39.873V68.636z M58.126,78.27h14.228v5.605H58.126V78.27z M76.38,78.27h14.228v5.605H76.38V78.27z M94.633,74.242v-5.606h14.228
	v5.606H94.633z M112.887,68.636h7.492l-2.131,5.606h-5.361V68.636z M112.887,64.609v-5.606h11.15l-2.129,5.606H112.887z
	 M112.887,54.976V49.37h14.809l-2.129,5.606H112.887z M112.887,45.343V37.07h19.48l-3.143,8.274L112.887,45.343L112.887,45.343z
	 M83.443,37.071l-1.441,8.272H76.38v-8.272H83.443z M72.354,37.071v8.272h-5.952l-1.441-8.272H72.354z M35.846,37.072v8.271H18.344
	l-3.717-8.271H35.846z M35.846,78.27v5.605h-0.183l-2.52-5.605H35.846z M58.126,93.97V87.9h14.228v6.069H58.126z M76.38,87.9h14.228
	v6.069H76.38V87.9z M114.59,83.875h-1.703V78.27h3.832L114.59,83.875z"/>
</svg>
