<?xml version="1.0" encoding="utf-8"?>
<!-- Generator: Adobe Illustrator 16.0.0, SVG Export Plug-In . SVG Version: 6.00 Build 0)  -->
<!DOCTYPE svg PUBLIC "-//W3C//DTD SVG 1.1//EN" "http://www.w3.org/Graphics/SVG/1.1/DTD/svg11.dtd">
<svg version="1.1" id="Layer_1" xmlns="http://www.w3.org/2000/svg" xmlns:xlink="http://www.w3.org/1999/xlink" x="0px" y="0px"
	 width="271.486px" height="419.979px" viewBox="0 0 271.486 419.979" enable-background="new 0 0 271.486 419.979"
	 xml:space="preserve">
<g>
	<path fill-rule="evenodd" clip-rule="evenodd" fill="#BBBBBB" d="M267.581,59.465c-0.962,1.039-2.038,2.283-3.198,3.443
		c-27.918,27.933-56.209,55.505-83.648,83.901c-19.447,20.125-39.33,39.802-59.027,59.671c-2.603,2.626-3.075,4.492,0.015,6.748
		c0.266,0.194,0.475,0.466,0.71,0.702c47.188,47.521,94.333,95.084,141.649,142.478c3.575,3.581,3.653,5.432,0.009,8.981
		c-15.993,15.58-31.77,31.389-47.377,47.355c-3.457,3.537-5.407,3.22-8.727-0.125c-30.99-31.222-62.589-61.854-93.133-93.504
		c-34.017-35.249-69.178-69.342-103.509-104.268c-4.885-4.97-4.912-4.952-0.038-9.852C76.404,139.563,141.498,74.126,206.611,8.708
		c6.458-6.487,5.157-6.406,11.744,0.16c15.459,15.411,30.886,30.855,46.299,46.314C265.791,56.322,267.341,57.222,267.581,59.465z"
		/>
</g>
</svg>
