<?xml version="1.0" encoding="utf-8"?>
<!-- Generator: Adobe Illustrator 16.0.0, SVG Export Plug-In . SVG Version: 6.00 Build 0)  -->
<!DOCTYPE svg PUBLIC "-//W3C//DTD SVG 1.1//EN" "http://www.w3.org/Graphics/SVG/1.1/DTD/svg11.dtd">
<svg version="1.1" id="Layer_1" xmlns="http://www.w3.org/2000/svg" xmlns:xlink="http://www.w3.org/1999/xlink" x="0px" y="0px"
	 width="402px" height="350px" viewBox="0 0 402 350" enable-background="new 0 0 402 350" xml:space="preserve">
<g>
	<path fill-rule="evenodd" clip-rule="evenodd" d="M313,318c-6.661-6.275-13.275-12.602-19.992-18.817
		c-29.473-27.272-59.007-54.478-88.41-81.823c-2.621-2.437-4.496-2.756-7.71-1.011c-45.329,24.608-101.939,12.925-133.628-27.573
		c-8.88-11.349-14.384-24.299-16.934-38.498c-0.32-1.781-0.877-3.52-1.325-5.277c0-6.333,0-12.667,0-19
		c0.305-0.76,0.754-1.493,0.894-2.282c6.97-39.367,30.921-63.786,67.822-76.498c7.176-2.472,14.843-3.517,22.284-5.22c7,0,14,0,21,0
		c8.375,2.04,17.034,3.306,25.074,6.257c32.236,11.828,54.521,33.499,63.088,67.414c5.777,22.874,1.774,44.597-10.129,64.897
		c-0.995,1.697-2.047,3.361-3.249,5.332c9.991,9.312,19.807,18.526,29.693,27.665c26.423,24.422,52.872,48.815,79.331,73.197
		c0.947,0.872,2.123,1.497,3.191,2.237c0,0.667,0,1.333,0,2c-0.584,0.212-1.312,0.271-1.732,0.659
		C332.825,300.418,323.416,309.212,314,318C313.666,318,313.334,318,313,318z M142.229,201.271
		c17.924-0.046,30.002-3.259,41.901-10.032c39.076-22.243,44.997-73.279,11.917-102.714c-27.888-24.814-70.642-25.025-98.818-0.486
		c-24.766,21.567-29.564,56.431-10.771,82.934C100.979,191.452,121.611,200.764,142.229,201.271z"/>
</g>
</svg>
