<?xml version="1.0" encoding="utf-8"?>
<!-- Generator: Adobe Illustrator 16.0.0, SVG Export Plug-In . SVG Version: 6.00 Build 0)  -->
<!DOCTYPE svg PUBLIC "-//W3C//DTD SVG 1.1//EN" "http://www.w3.org/Graphics/SVG/1.1/DTD/svg11.dtd">
<svg version="1.1" id="Layer_1" xmlns="http://www.w3.org/2000/svg" xmlns:xlink="http://www.w3.org/1999/xlink" x="0px" y="0px"
	 width="271.486px" height="419.979px" viewBox="0 0 271.486 419.979" enable-background="new 0 0 271.486 419.979"
	 xml:space="preserve">
<g>
	<path fill-rule="evenodd" clip-rule="evenodd" fill="#BBBBBB" d="M7.666,359.693c0.962-1.039,2.038-2.283,3.198-3.443
		c27.918-27.933,56.209-55.505,83.648-83.901c19.447-20.125,39.33-39.802,59.026-59.671c2.604-2.626,3.075-4.492-0.015-6.748
		c-0.266-0.194-0.475-0.466-0.71-0.702C105.627,157.707,58.481,110.144,11.166,62.75c-3.575-3.581-3.653-5.432-0.009-8.981
		C27.15,38.188,42.927,22.38,58.534,6.413c3.457-3.537,5.407-3.22,8.727,0.125c30.99,31.222,62.589,61.854,93.133,93.504
		c34.017,35.249,69.178,69.342,103.509,104.268c4.885,4.97,4.912,4.952,0.038,9.852C198.843,279.595,133.749,345.032,68.636,410.45
		c-6.458,6.487-5.157,6.406-11.744-0.16c-15.459-15.411-30.886-30.855-46.299-46.314C9.456,362.836,7.906,361.937,7.666,359.693z"/>
</g>
</svg>
