<?xml version="1.0" encoding="utf-8"?>
<!-- Generator: Adobe Illustrator 16.0.0, SVG Export Plug-In . SVG Version: 6.00 Build 0)  -->
<!DOCTYPE svg PUBLIC "-//W3C//DTD SVG 1.1//EN" "http://www.w3.org/Graphics/SVG/1.1/DTD/svg11.dtd">
<svg version="1.1" id="Layer_1" xmlns="http://www.w3.org/2000/svg" xmlns:xlink="http://www.w3.org/1999/xlink" x="0px" y="0px"
	 width="94px" height="55.432px" viewBox="0 0 94 55.432" enable-background="new 0 0 94 55.432" xml:space="preserve">
<rect x="40.062" y="3.667" fill="#FFFFFF" width="17" height="22.292"/>
<rect x="40.375" y="31.667" fill="#FFFFFF" width="17" height="22.292"/>
<polygon fill="#FFFFFF" points="25.958,8.167 24.125,8.167 24.125,2.917 7.125,2.917 7.125,8.792 1.083,8.792 1.083,12.417 
	7.125,12.417 7.125,22.333 24.125,22.333 24.125,11.333 25.958,11.333 "/>
<path fill="#FFFFFF" d="M7.688,1.042L5.906,1.073c0,0-1.547,0.203-1.703,0.344c0,0-0.688,0.188-1.219,0.688S2.516,7.417,2.516,7.417
	l5.562,0.5l0.594-5.594L7.688,1.042z"/>
<polygon fill="#FFFFFF" points="25.958,36.167 24.125,36.167 24.125,30.917 7.125,30.917 7.125,36.792 1.083,36.792 1.083,40.417 
	7.125,40.417 7.125,50.333 24.125,50.333 24.125,39.333 25.958,39.333 "/>
<path fill="#FFFFFF" d="M7.688,29.042l-1.781,0.031c0,0-1.547,0.203-1.703,0.344c0,0-0.688,0.188-1.219,0.688
	s-0.469,5.312-0.469,5.312l5.562,0.5l0.594-5.594L7.688,29.042z"/>
<g>
	<path fill-rule="evenodd" clip-rule="evenodd" d="M1.081,37.977c2.417,0,4.8,0,7.235,0c-0.06,0.132-0.093,0.227-0.143,0.312
		c-0.374,0.635-0.706,1.297-0.833,2.022c-0.342,1.951,0.003,3.755,1.267,5.331c1.007,1.255,2.327,2.026,3.9,2.261
		c3.061,0.457,5.845-1.202,6.904-4.031c0.722-1.926,0.489-3.785-0.555-5.548c-0.061-0.103-0.113-0.209-0.189-0.35
		c0.117-0.009,0.194-0.02,0.272-0.02c2.265,0,4.53,0.004,6.794,0c0.19,0,0.229,0.065,0.228,0.24
		c-0.006,3.275-0.003,6.551-0.011,9.826c-0.001,0.643,0.041,1.299-0.074,1.925c-0.37,2.031-1.603,3.327-3.564,3.933
		c-0.236,0.073-0.494,0.103-0.742,0.103c-5.304,0.006-10.608-0.002-15.912,0.012c-0.811,0.002-1.517-0.266-2.188-0.658
		c-1.172-0.685-1.89-1.734-2.23-3.024c-0.128-0.486-0.123-1.015-0.129-1.525c-0.022-1.776-0.027-3.552-0.032-5.328
		c-0.004-1.719,0-3.438,0.001-5.157C1.081,38.213,1.081,38.125,1.081,37.977z"/>
	<path fill-rule="evenodd" clip-rule="evenodd" d="M3.206,30c0,1.729,0,3.459,0,5.201c0.333,0,0.623,0,0.952,0
		c0-0.103,0-0.197,0-0.291c0-1.751-0.001-3.503,0.003-5.255c0-0.086,0.023-0.229,0.074-0.25c0.185-0.074,0.384-0.11,0.582-0.145
		c0.011-0.002,0.067,0.136,0.069,0.209C4.896,29.884,4.9,30.3,4.9,30.715c0.001,1.41,0.005,2.819-0.004,4.229
		c-0.001,0.214,0.054,0.291,0.273,0.273c0.234-0.019,0.47-0.004,0.738-0.004c0-2.057,0-4.096,0-6.148c0.24,0,0.449,0,0.689,0
		c0,2.037,0,4.076,0,6.132c0.344,0,0.657,0,0.991,0c0-2.042,0-4.075,0-6.145c0.107,0,0.192,0,0.278,0
		c4.555,0.002,9.109-0.008,13.664,0.024c0.481,0.003,0.982,0.209,1.439,0.404c1.536,0.655,2.458,1.85,2.871,3.448
		c0.074,0.288,0.094,0.595,0.097,0.894c0.011,1.131,0.004,2.263,0.004,3.429c-0.08,0-0.167,0-0.253,0
		c-2.485,0-4.97,0.002-7.455-0.007c-0.128,0-0.284-0.066-0.379-0.154c-1.09-0.992-2.347-1.579-3.831-1.694
		c-1.863-0.145-3.457,0.452-4.844,1.667c-0.148,0.129-0.298,0.193-0.502,0.193C6.248,37.247,3.82,37.25,1.392,37.25
		c-0.096,0-0.191,0-0.313,0c0-0.113-0.001-0.2,0-0.288c0.016-1.164-0.009-2.331,0.06-3.492c0.067-1.136,0.572-2.105,1.367-2.917
		c0.197-0.202,0.409-0.39,0.614-0.584C3.148,29.979,3.177,29.989,3.206,30z M19.486,33.34c0.008,0,0.016,0,0.023,0.001
		c0,0.407,0,0.814,0,1.222c0,0.016,0,0.032,0.001,0.049c0.02,0.463,0.272,0.74,0.725,0.745c0.886,0.011,1.772,0.012,2.658,0.001
		c0.454-0.006,0.71-0.24,0.719-0.689c0.019-0.959,0.011-1.918,0.002-2.878c-0.002-0.257-0.231-0.511-0.453-0.54
		c-0.185-0.024-0.372-0.05-0.557-0.048c-0.838,0.009-1.676,0.024-2.514,0.045c-0.339,0.008-0.512,0.17-0.534,0.508
		C19.525,32.284,19.509,32.812,19.486,33.34z"/>
	<path fill-rule="evenodd" clip-rule="evenodd" d="M8.608,41.604c-0.074-2.417,2.063-4.851,4.832-4.846
		c2.893,0.004,4.972,2.151,4.969,4.978c-0.002,2.696-2.206,4.837-4.832,4.84C10.542,46.58,8.54,44.161,8.608,41.604z M17.089,41.67
		c0.046-1.639-1.309-3.623-3.741-3.568c-1.717,0.038-3.413,1.502-3.403,3.592c0.009,1.979,1.608,3.537,3.578,3.542
		C15.421,45.241,17.08,43.729,17.089,41.67z"/>
</g>
<g>
	<path fill-rule="evenodd" clip-rule="evenodd" d="M50.826,53.992c0-3.23,0-6.45,0-9.679c1.081,0,2.16,0,3.245,0
		c0.162-1.258,0.323-2.508,0.485-3.764c-1.247,0-2.484,0-3.732,0c0-0.028,0-0.05,0-0.073c0-0.811-0.001-1.622,0-2.433
		c0-0.25,0.025-0.499,0.093-0.741c0.133-0.476,0.446-0.768,0.916-0.902c0.268-0.076,0.542-0.102,0.818-0.102
		c0.651-0.001,1.303,0,1.955,0c0.025,0,0.051,0,0.081,0c0-1.123,0-2.241,0-3.368c-0.099-0.01-0.197-0.023-0.295-0.032
		c-0.709-0.063-1.419-0.104-2.13-0.108c-0.334-0.002-0.669-0.006-1.002,0.017c-0.94,0.066-1.812,0.337-2.575,0.91
		c-0.624,0.469-1.064,1.078-1.352,1.8c-0.192,0.481-0.309,0.981-0.354,1.497c-0.023,0.261-0.037,0.524-0.038,0.787
		c-0.005,0.887-0.002,1.773-0.002,2.66c0,0.025,0,0.051,0,0.084c-1.085,0-2.167,0-3.253,0c0,1.257,0,2.507,0,3.765
		c1.081,0,2.162,0,3.249,0c0,3.23,0,6.454,0,9.684c-0.024,0-0.047,0-0.07,0c-4.001,0-8.003,0.001-12.004-0.002
		c-0.244,0-0.467-0.092-0.668-0.231c-0.312-0.217-0.516-0.507-0.582-0.885c-0.016-0.092-0.026-0.186-0.026-0.279
		c-0.001-7.424-0.001-14.849,0.001-22.274c0-0.296,0.107-0.562,0.293-0.795c0.177-0.222,0.396-0.385,0.671-0.462
		c0.123-0.035,0.253-0.062,0.38-0.062C42.367,29,49.805,29,57.243,29.001c0.29,0,0.553,0.097,0.784,0.272
		c0.263,0.2,0.44,0.461,0.515,0.786c0.019,0.082,0.033,0.167,0.033,0.251c0.001,7.455,0.001,14.91,0,22.365
		c0,0.278-0.099,0.527-0.257,0.75c-0.198,0.279-0.472,0.452-0.804,0.533c-0.08,0.019-0.163,0.031-0.245,0.032
		c-2.118,0.002-4.237,0.001-6.355,0.001C50.887,53.992,50.859,53.992,50.826,53.992z"/>
</g>
<g>
	<path fill-rule="evenodd" clip-rule="evenodd" d="M72.587,48.531c-1.439-0.041-2.689-0.501-3.783-1.366
		c-1-0.791-1.691-1.804-2.076-2.997c0.459,0.023,0.922,0.055,1.385,0.066c0.464,0.012,0.917-0.074,1.363-0.194
		c-2.901-0.622-5.016-3.267-4.959-6.284c0.861,0.478,1.774,0.745,2.755,0.782c-0.939-0.679-1.659-1.535-2.141-2.584
		c-0.296-0.645-0.471-1.324-0.539-2.029c-0.073-0.744-0.008-1.478,0.18-2.201c0.145-0.555,0.357-1.083,0.654-1.575
		c3.397,4.013,7.7,6.219,12.959,6.592c-0.031-0.214-0.059-0.395-0.083-0.575c-0.018-0.126-0.036-0.253-0.047-0.381
		c-0.013-0.146-0.03-0.293-0.025-0.439c0.008-0.23,0.021-0.462,0.053-0.69c0.044-0.318,0.086-0.638,0.164-0.948
		c0.198-0.794,0.542-1.523,1.044-2.172c0.184-0.238,0.37-0.479,0.584-0.688c0.643-0.631,1.378-1.12,2.228-1.44
		c0.469-0.177,0.948-0.308,1.44-0.361c0.448-0.048,0.905-0.062,1.354-0.028c0.754,0.057,1.479,0.255,2.165,0.585
		c0.515,0.249,0.995,0.546,1.42,0.93c0.129,0.117,0.259,0.232,0.381,0.356c0.069,0.071,0.127,0.095,0.231,0.064
		c0.547-0.161,1.105-0.286,1.644-0.469c0.704-0.24,1.382-0.547,2.021-0.934c0.056-0.034,0.118-0.057,0.21-0.1
		c-0.239,0.735-0.578,1.379-1.034,1.968c-0.457,0.591-1.005,1.077-1.627,1.491c1.206-0.147,2.36-0.47,3.493-0.935
		c-0.037,0.056-0.07,0.114-0.111,0.167c-0.274,0.356-0.538,0.722-0.83,1.064c-0.284,0.333-0.581,0.657-0.901,0.953
		c-0.383,0.355-0.789,0.686-1.2,1.008c-0.159,0.125-0.081,0.266-0.085,0.4c-0.01,0.298-0.002,0.596-0.002,0.894
		c0,0.054-0.002,0.107-0.006,0.161c-0.035,0.469-0.068,0.938-0.108,1.407c-0.072,0.849-0.248,1.68-0.461,2.502
		c-0.205,0.79-0.457,1.567-0.778,2.319c-0.218,0.509-0.438,1.019-0.688,1.513c-0.438,0.865-0.942,1.691-1.522,2.469
		c-0.264,0.354-0.531,0.708-0.825,1.036c-0.446,0.5-0.896,0.999-1.382,1.458c-0.476,0.449-0.984,0.867-1.508,1.259
		c-0.502,0.376-1.029,0.726-1.572,1.04c-0.552,0.318-1.128,0.601-1.712,0.856c-0.562,0.246-1.139,0.465-1.725,0.646
		c-0.624,0.192-1.262,0.337-1.9,0.48c-0.42,0.094-0.848,0.158-1.275,0.215c-0.324,0.044-0.653,0.071-0.98,0.083
		c-0.732,0.026-1.466,0.054-2.199,0.05c-0.411-0.002-0.822-0.058-1.231-0.103c-0.417-0.045-0.835-0.091-1.246-0.167
		c-0.458-0.084-0.916-0.177-1.36-0.312c-0.755-0.228-1.515-0.453-2.244-0.75c-0.704-0.287-1.373-0.659-2.051-1.005
		c-0.254-0.129-0.494-0.287-0.739-0.434c-0.023-0.014-0.04-0.037-0.074-0.07C66.724,51.472,69.81,50.628,72.587,48.531z"/>
</g>
<g>
	<path fill-rule="evenodd" clip-rule="evenodd" fill="#333333" d="M1.081,9.977c2.417,0,4.8,0,7.235,0
		c-0.06,0.132-0.093,0.227-0.143,0.312c-0.374,0.635-0.706,1.297-0.833,2.022c-0.342,1.951,0.003,3.755,1.267,5.331
		c1.007,1.255,2.327,2.026,3.9,2.261c3.061,0.457,5.845-1.202,6.904-4.031c0.722-1.926,0.489-3.785-0.555-5.548
		c-0.061-0.103-0.113-0.209-0.189-0.35c0.117-0.009,0.194-0.02,0.272-0.02c2.265,0,4.53,0.004,6.794,0
		c0.19,0,0.229,0.065,0.228,0.24c-0.006,3.275-0.003,6.551-0.011,9.826c-0.001,0.643,0.041,1.299-0.074,1.925
		c-0.37,2.031-1.603,3.327-3.564,3.933c-0.236,0.073-0.494,0.103-0.742,0.103c-5.304,0.006-10.608-0.002-15.912,0.012
		c-0.811,0.002-1.517-0.266-2.188-0.658c-1.172-0.685-1.89-1.734-2.23-3.024c-0.128-0.486-0.123-1.015-0.129-1.525
		c-0.022-1.776-0.027-3.552-0.032-5.328c-0.004-1.719,0-3.438,0.001-5.157C1.081,10.213,1.081,10.125,1.081,9.977z"/>
	<path fill-rule="evenodd" clip-rule="evenodd" fill="#333333" d="M3.206,2c0,1.729,0,3.459,0,5.201c0.333,0,0.623,0,0.952,0
		c0-0.103,0-0.197,0-0.291c0-1.751-0.001-3.503,0.003-5.255c0-0.086,0.023-0.229,0.074-0.25c0.185-0.074,0.384-0.11,0.582-0.145
		c0.011-0.002,0.067,0.136,0.069,0.209C4.896,1.884,4.9,2.3,4.9,2.715c0.001,1.41,0.005,2.819-0.004,4.229
		C4.895,7.158,4.951,7.235,5.169,7.217c0.234-0.019,0.47-0.004,0.738-0.004c0-2.057,0-4.096,0-6.148c0.24,0,0.449,0,0.689,0
		c0,2.037,0,4.076,0,6.132c0.344,0,0.657,0,0.991,0c0-2.042,0-4.075,0-6.145c0.107,0,0.192,0,0.278,0
		c4.555,0.002,9.109-0.008,13.664,0.024c0.481,0.003,0.982,0.209,1.439,0.404c1.536,0.655,2.458,1.85,2.871,3.448
		c0.074,0.288,0.094,0.595,0.097,0.894c0.011,1.131,0.004,2.263,0.004,3.429c-0.08,0-0.167,0-0.253,0
		c-2.485,0-4.97,0.002-7.455-0.007c-0.128,0-0.284-0.066-0.379-0.154c-1.09-0.992-2.347-1.579-3.831-1.694
		C12.16,7.25,10.565,7.847,9.178,9.062C9.03,9.191,8.88,9.255,8.676,9.254C6.248,9.247,3.82,9.25,1.392,9.25
		c-0.096,0-0.191,0-0.313,0c0-0.113-0.001-0.2,0-0.288C1.095,7.798,1.07,6.631,1.139,5.47c0.067-1.136,0.572-2.105,1.367-2.917
		c0.197-0.202,0.409-0.39,0.614-0.584C3.148,1.979,3.177,1.989,3.206,2z M19.486,5.34c0.008,0,0.016,0,0.023,0.001
		c0,0.407,0,0.814,0,1.222c0,0.016,0,0.032,0.001,0.049c0.02,0.463,0.272,0.74,0.725,0.745c0.886,0.011,1.772,0.012,2.658,0.001
		c0.454-0.006,0.71-0.24,0.719-0.689c0.019-0.959,0.011-1.918,0.002-2.878c-0.002-0.257-0.231-0.511-0.453-0.54
		c-0.185-0.024-0.372-0.05-0.557-0.048c-0.838,0.009-1.676,0.024-2.514,0.045c-0.339,0.008-0.512,0.17-0.534,0.508
		C19.525,4.284,19.509,4.812,19.486,5.34z"/>
	<path fill-rule="evenodd" clip-rule="evenodd" fill="#333333" d="M8.608,13.604c-0.074-2.417,2.063-4.851,4.832-4.846
		c2.893,0.004,4.972,2.151,4.969,4.978c-0.002,2.696-2.206,4.837-4.832,4.84C10.542,18.58,8.54,16.161,8.608,13.604z M17.089,13.67
		c0.046-1.639-1.309-3.623-3.741-3.568c-1.717,0.038-3.413,1.502-3.403,3.592c0.009,1.979,1.608,3.537,3.578,3.542
		C15.421,17.241,17.08,15.729,17.089,13.67z"/>
</g>
<g>
	<path fill-rule="evenodd" clip-rule="evenodd" fill="#333333" d="M50.826,25.992c0-3.23,0-6.45,0-9.679c1.081,0,2.16,0,3.245,0
		c0.162-1.258,0.323-2.508,0.485-3.764c-1.247,0-2.484,0-3.732,0c0-0.028,0-0.05,0-0.073c0-0.811-0.001-1.622,0-2.433
		c0-0.25,0.025-0.499,0.093-0.741c0.133-0.476,0.446-0.768,0.916-0.902c0.268-0.076,0.542-0.102,0.818-0.102
		c0.651-0.001,1.303,0,1.955,0c0.025,0,0.051,0,0.081,0c0-1.123,0-2.241,0-3.368c-0.099-0.01-0.197-0.023-0.295-0.032
		c-0.709-0.063-1.419-0.104-2.13-0.108c-0.334-0.002-0.669-0.006-1.002,0.017c-0.94,0.066-1.812,0.337-2.575,0.91
		c-0.624,0.469-1.064,1.078-1.352,1.8c-0.192,0.481-0.309,0.981-0.354,1.497c-0.023,0.261-0.037,0.524-0.038,0.787
		c-0.005,0.887-0.002,1.773-0.002,2.66c0,0.025,0,0.051,0,0.084c-1.085,0-2.167,0-3.253,0c0,1.257,0,2.507,0,3.765
		c1.081,0,2.162,0,3.249,0c0,3.23,0,6.454,0,9.684c-0.024,0-0.047,0-0.07,0c-4.001,0-8.003,0.001-12.004-0.002
		c-0.244,0-0.467-0.092-0.668-0.231c-0.312-0.217-0.516-0.507-0.582-0.885c-0.016-0.092-0.026-0.186-0.026-0.279
		c-0.001-7.424-0.001-14.849,0.001-22.274c0-0.296,0.107-0.562,0.293-0.795c0.177-0.222,0.396-0.385,0.671-0.462
		c0.123-0.035,0.253-0.062,0.38-0.062C42.367,1,49.805,1,57.243,1.001c0.29,0,0.553,0.097,0.784,0.272
		c0.263,0.2,0.44,0.461,0.515,0.786c0.019,0.082,0.033,0.167,0.033,0.251c0.001,7.455,0.001,14.91,0,22.365
		c0,0.278-0.099,0.527-0.257,0.75c-0.198,0.279-0.472,0.452-0.804,0.533c-0.08,0.019-0.163,0.031-0.245,0.032
		c-2.118,0.002-4.237,0.001-6.355,0.001C50.887,25.992,50.859,25.992,50.826,25.992z"/>
</g>
<g>
	<path fill-rule="evenodd" clip-rule="evenodd" fill="#333333" d="M72.587,20.531c-1.439-0.041-2.689-0.501-3.783-1.366
		c-1-0.791-1.691-1.804-2.076-2.997c0.459,0.023,0.922,0.055,1.385,0.066c0.464,0.012,0.917-0.074,1.363-0.194
		c-2.901-0.622-5.016-3.267-4.959-6.284c0.861,0.478,1.774,0.745,2.755,0.782c-0.939-0.679-1.659-1.535-2.141-2.584
		c-0.296-0.645-0.471-1.324-0.539-2.029c-0.073-0.744-0.008-1.478,0.18-2.201c0.145-0.555,0.357-1.083,0.654-1.575
		c3.397,4.013,7.7,6.219,12.959,6.592c-0.031-0.214-0.059-0.395-0.083-0.575c-0.018-0.126-0.036-0.253-0.047-0.381
		c-0.013-0.146-0.03-0.293-0.025-0.439c0.008-0.23,0.021-0.462,0.053-0.69c0.044-0.318,0.086-0.638,0.164-0.948
		c0.198-0.794,0.542-1.523,1.044-2.172c0.184-0.238,0.37-0.479,0.584-0.688c0.643-0.631,1.378-1.12,2.228-1.44
		c0.469-0.177,0.948-0.308,1.44-0.361C84.189,1,84.647,0.987,85.096,1.021c0.754,0.057,1.479,0.255,2.165,0.585
		c0.515,0.249,0.995,0.546,1.42,0.93c0.129,0.117,0.259,0.232,0.381,0.356c0.069,0.071,0.127,0.095,0.231,0.064
		c0.547-0.161,1.105-0.286,1.644-0.469c0.704-0.24,1.382-0.547,2.021-0.934c0.056-0.034,0.118-0.057,0.21-0.1
		c-0.239,0.735-0.578,1.379-1.034,1.968c-0.457,0.591-1.005,1.077-1.627,1.491c1.206-0.147,2.36-0.47,3.493-0.935
		c-0.037,0.056-0.07,0.114-0.111,0.167c-0.274,0.356-0.538,0.722-0.83,1.064c-0.284,0.333-0.581,0.657-0.901,0.953
		c-0.383,0.355-0.789,0.686-1.2,1.008c-0.159,0.125-0.081,0.266-0.085,0.4c-0.01,0.298-0.002,0.596-0.002,0.894
		c0,0.054-0.002,0.107-0.006,0.161c-0.035,0.469-0.068,0.938-0.108,1.407c-0.072,0.849-0.248,1.68-0.461,2.502
		c-0.205,0.79-0.457,1.567-0.778,2.319c-0.218,0.509-0.438,1.019-0.688,1.513c-0.438,0.865-0.942,1.691-1.522,2.469
		c-0.264,0.354-0.531,0.708-0.825,1.036c-0.446,0.5-0.896,0.999-1.382,1.458c-0.476,0.449-0.984,0.867-1.508,1.259
		c-0.502,0.376-1.029,0.726-1.572,1.04c-0.552,0.318-1.128,0.601-1.712,0.856c-0.562,0.246-1.139,0.465-1.725,0.646
		c-0.624,0.192-1.262,0.337-1.9,0.48c-0.42,0.094-0.848,0.158-1.275,0.215c-0.324,0.044-0.653,0.071-0.98,0.083
		c-0.732,0.026-1.466,0.054-2.199,0.05c-0.411-0.002-0.822-0.058-1.231-0.103c-0.417-0.045-0.835-0.091-1.246-0.167
		c-0.458-0.084-0.916-0.177-1.36-0.312c-0.755-0.228-1.515-0.453-2.244-0.75c-0.704-0.287-1.373-0.659-2.051-1.005
		c-0.254-0.129-0.494-0.287-0.739-0.434c-0.023-0.014-0.04-0.037-0.074-0.07C66.724,23.472,69.81,22.628,72.587,20.531z"/>
</g>
</svg>
